<svg width="505" height="1048" viewBox="0 0 505 1048" fill="none" xmlns="http://www.w3.org/2000/svg">
<path d="M0 4.5C0 2.01472 2.01472 0 4.5 0C6.98528 0 9 2.01472 9 4.5C9 6.98528 6.98528 9 4.5 9C2.01472 9 0 6.98528 0 4.5Z" fill="#E9E9E9"/>
<path d="M0 18.5C0 16.0147 2.01472 14 4.5 14C6.98528 14 9 16.0147 9 18.5C9 20.9853 6.98528 23 4.5 23C2.01472 23 0 20.9853 0 18.5Z" fill="#E9E9E9"/>
<path d="M0 37.5C0 35.0147 2.01472 33 4.5 33C6.98528 33 9 35.0147 9 37.5C9 39.9853 6.98528 42 4.5 42C2.01472 42 0 39.9853 0 37.5Z" fill="#E9E9E9"/>
<path d="M0 61.5C0 59.0147 2.01472 57 4.5 57C6.98528 57 9 59.0147 9 61.5C9 63.9853 6.98528 66 4.5 66C2.01472 66 0 63.9853 0 61.5Z" fill="#E9E9E9"/>
<path d="M0 90.5C0 88.0147 2.01472 86 4.5 86C6.98528 86 9 88.0147 9 90.5C9 92.9853 6.98528 95 4.5 95C2.01472 95 0 92.9853 0 90.5Z" fill="#E9E9E9"/>
<path d="M0 124.5C0 122.015 2.01472 120 4.5 120C6.98528 120 9 122.015 9 124.5C9 126.985 6.98528 129 4.5 129C2.01472 129 0 126.985 0 124.5Z" fill="#E9E9E9"/>
<path d="M0 163.5C0 161.015 2.01472 159 4.5 159C6.98528 159 9 161.015 9 163.5C9 165.985 6.98528 168 4.5 168C2.01472 168 0 165.985 0 163.5Z" fill="#E9E9E9"/>
<path d="M0 207.5C0 205.015 2.01472 203 4.5 203C6.98528 203 9 205.015 9 207.5C9 209.985 6.98528 212 4.5 212C2.01472 212 0 209.985 0 207.5Z" fill="#E9E9E9"/>
<path d="M0 256.5C0 254.015 2.01472 252 4.5 252C6.98528 252 9 254.015 9 256.5C9 258.985 6.98528 261 4.5 261C2.01472 261 0 258.985 0 256.5Z" fill="#E9E9E9"/>
<path d="M0 310.5C0 308.015 2.01472 306 4.5 306C6.98528 306 9 308.015 9 310.5C9 312.985 6.98528 315 4.5 315C2.01472 315 0 312.985 0 310.5Z" fill="#E9E9E9"/>
<path d="M0 369.5C0 367.015 2.01472 365 4.5 365C6.98528 365 9 367.015 9 369.5C9 371.985 6.98528 374 4.5 374C2.01472 374 0 371.985 0 369.5Z" fill="#E9E9E9"/>
<path d="M0 433.5C0 431.015 2.01472 429 4.5 429C6.98528 429 9 431.015 9 433.5C9 435.985 6.98528 438 4.5 438C2.01472 438 0 435.985 0 433.5Z" fill="#E9E9E9"/>
<path d="M0 497.5C0 495.015 2.01472 493 4.5 493C6.98528 493 9 495.015 9 497.5C9 499.985 6.98528 502 4.5 502C2.01472 502 0 499.985 0 497.5Z" fill="#E9E9E9"/>
<path d="M0 556.5C0 554.015 2.01472 552 4.5 552C6.98528 552 9 554.015 9 556.5C9 558.985 6.98528 561 4.5 561C2.01472 561 0 558.985 0 556.5Z" fill="#E9E9E9"/>
<path d="M0 610.5C0 608.015 2.01472 606 4.5 606C6.98528 606 9 608.015 9 610.5C9 612.985 6.98528 615 4.5 615C2.01472 615 0 612.985 0 610.5Z" fill="#E9E9E9"/>
<path d="M0 659.5C0 657.015 2.01472 655 4.5 655C6.98528 655 9 657.015 9 659.5C9 661.985 6.98528 664 4.5 664C2.01472 664 0 661.985 0 659.5Z" fill="#E9E9E9"/>
<path d="M0 703.5C0 701.015 2.01472 699 4.5 699C6.98528 699 9 701.015 9 703.5C9 705.985 6.98528 708 4.5 708C2.01472 708 0 705.985 0 703.5Z" fill="#E9E9E9"/>
<path d="M0 742.5C0 740.015 2.01472 738 4.5 738C6.98528 738 9 740.015 9 742.5C9 744.985 6.98528 747 4.5 747C2.01472 747 0 744.985 0 742.5Z" fill="#E9E9E9"/>
<path d="M0 776.5C0 774.015 2.01472 772 4.5 772C6.98528 772 9 774.015 9 776.5C9 778.985 6.98528 781 4.5 781C2.01472 781 0 778.985 0 776.5Z" fill="#E9E9E9"/>
<path d="M0 805.5C0 803.015 2.01472 801 4.5 801C6.98528 801 9 803.015 9 805.5C9 807.985 6.98528 810 4.5 810C2.01472 810 0 807.985 0 805.5Z" fill="#E9E9E9"/>
<path d="M0 829.5C0 827.015 2.01472 825 4.5 825C6.98528 825 9 827.015 9 829.5C9 831.985 6.98528 834 4.5 834C2.01472 834 0 831.985 0 829.5Z" fill="#E9E9E9"/>
<path d="M0 853.5C0 851.015 2.01472 849 4.5 849C6.98528 849 9 851.015 9 853.5C9 855.985 6.98528 858 4.5 858C2.01472 858 0 855.985 0 853.5Z" fill="#E9E9E9"/>
<path d="M0 882.5C0 880.015 2.01472 878 4.5 878C6.98528 878 9 880.015 9 882.5C9 884.985 6.98528 887 4.5 887C2.01472 887 0 884.985 0 882.5Z" fill="#E9E9E9"/>
<path d="M0 916.5C0 914.015 2.01472 912 4.5 912C6.98528 912 9 914.015 9 916.5C9 918.985 6.98528 921 4.5 921C2.01472 921 0 918.985 0 916.5Z" fill="#E9E9E9"/>
<path d="M0 955.5C0 953.015 2.01472 951 4.5 951C6.98528 951 9 953.015 9 955.5C9 957.985 6.98528 960 4.5 960C2.01472 960 0 957.985 0 955.5Z" fill="#E9E9E9"/>
<path d="M0 999.5C0 997.015 2.01472 995 4.5 995C6.98528 995 9 997.015 9 999.5C9 1001.99 6.98528 1004 4.5 1004C2.01472 1004 0 1001.99 0 999.5Z" fill="#E9E9E9"/>
<path d="M0 1043.5C0 1041.01 2.01472 1039 4.5 1039C6.98528 1039 9 1041.01 9 1043.5C9 1045.99 6.98528 1048 4.5 1048C2.01472 1048 0 1045.99 0 1043.5Z" fill="#E9E9E9"/>
<path d="M23 4.5C23 2.01472 25.0147 0 27.5 0C29.9853 0 32 2.01472 32 4.5C32 6.98528 29.9853 9 27.5 9C25.0147 9 23 6.98528 23 4.5Z" fill="#E9E9E9"/>
<path d="M23 18.5C23 16.0147 25.0147 14 27.5 14C29.9853 14 32 16.0147 32 18.5C32 20.9853 29.9853 23 27.5 23C25.0147 23 23 20.9853 23 18.5Z" fill="#E9E9E9"/>
<path d="M23 37.5C23 35.0147 25.0147 33 27.5 33C29.9853 33 32 35.0147 32 37.5C32 39.9853 29.9853 42 27.5 42C25.0147 42 23 39.9853 23 37.5Z" fill="#E9E9E9"/>
<path d="M23 61.5C23 59.0147 25.0147 57 27.5 57C29.9853 57 32 59.0147 32 61.5C32 63.9853 29.9853 66 27.5 66C25.0147 66 23 63.9853 23 61.5Z" fill="#E9E9E9"/>
<path d="M23 90.5C23 88.0147 25.0147 86 27.5 86C29.9853 86 32 88.0147 32 90.5C32 92.9853 29.9853 95 27.5 95C25.0147 95 23 92.9853 23 90.5Z" fill="#E9E9E9"/>
<path d="M23 124.5C23 122.015 25.0147 120 27.5 120C29.9853 120 32 122.015 32 124.5C32 126.985 29.9853 129 27.5 129C25.0147 129 23 126.985 23 124.5Z" fill="#E9E9E9"/>
<path d="M23 163.5C23 161.015 25.0147 159 27.5 159C29.9853 159 32 161.015 32 163.5C32 165.985 29.9853 168 27.5 168C25.0147 168 23 165.985 23 163.5Z" fill="#E9E9E9"/>
<path d="M23 207.5C23 205.015 25.0147 203 27.5 203C29.9853 203 32 205.015 32 207.5C32 209.985 29.9853 212 27.5 212C25.0147 212 23 209.985 23 207.5Z" fill="#E9E9E9"/>
<path d="M23 256.5C23 254.015 25.0147 252 27.5 252C29.9853 252 32 254.015 32 256.5C32 258.985 29.9853 261 27.5 261C25.0147 261 23 258.985 23 256.5Z" fill="#E9E9E9"/>
<path d="M23 310.5C23 308.015 25.0147 306 27.5 306C29.9853 306 32 308.015 32 310.5C32 312.985 29.9853 315 27.5 315C25.0147 315 23 312.985 23 310.5Z" fill="#E9E9E9"/>
<path d="M23 369.5C23 367.015 25.0147 365 27.5 365C29.9853 365 32 367.015 32 369.5C32 371.985 29.9853 374 27.5 374C25.0147 374 23 371.985 23 369.5Z" fill="#E9E9E9"/>
<path d="M23 433.5C23 431.015 25.0147 429 27.5 429C29.9853 429 32 431.015 32 433.5C32 435.985 29.9853 438 27.5 438C25.0147 438 23 435.985 23 433.5Z" fill="#E9E9E9"/>
<path d="M23 497.5C23 495.015 25.0147 493 27.5 493C29.9853 493 32 495.015 32 497.5C32 499.985 29.9853 502 27.5 502C25.0147 502 23 499.985 23 497.5Z" fill="#E9E9E9"/>
<path d="M23 556.5C23 554.015 25.0147 552 27.5 552C29.9853 552 32 554.015 32 556.5C32 558.985 29.9853 561 27.5 561C25.0147 561 23 558.985 23 556.5Z" fill="#E9E9E9"/>
<path d="M23 610.5C23 608.015 25.0147 606 27.5 606C29.9853 606 32 608.015 32 610.5C32 612.985 29.9853 615 27.5 615C25.0147 615 23 612.985 23 610.5Z" fill="#E9E9E9"/>
<path d="M23 659.5C23 657.015 25.0147 655 27.5 655C29.9853 655 32 657.015 32 659.5C32 661.985 29.9853 664 27.5 664C25.0147 664 23 661.985 23 659.5Z" fill="#E9E9E9"/>
<path d="M23 703.5C23 701.015 25.0147 699 27.5 699C29.9853 699 32 701.015 32 703.5C32 705.985 29.9853 708 27.5 708C25.0147 708 23 705.985 23 703.5Z" fill="#E9E9E9"/>
<path d="M23 742.5C23 740.015 25.0147 738 27.5 738C29.9853 738 32 740.015 32 742.5C32 744.985 29.9853 747 27.5 747C25.0147 747 23 744.985 23 742.5Z" fill="#E9E9E9"/>
<path d="M23 776.5C23 774.015 25.0147 772 27.5 772C29.9853 772 32 774.015 32 776.5C32 778.985 29.9853 781 27.5 781C25.0147 781 23 778.985 23 776.5Z" fill="#E9E9E9"/>
<path d="M23 805.5C23 803.015 25.0147 801 27.5 801C29.9853 801 32 803.015 32 805.5C32 807.985 29.9853 810 27.5 810C25.0147 810 23 807.985 23 805.5Z" fill="#E9E9E9"/>
<path d="M23 829.5C23 827.015 25.0147 825 27.5 825C29.9853 825 32 827.015 32 829.5C32 831.985 29.9853 834 27.5 834C25.0147 834 23 831.985 23 829.5Z" fill="#E9E9E9"/>
<path d="M23 853.5C23 851.015 25.0147 849 27.5 849C29.9853 849 32 851.015 32 853.5C32 855.985 29.9853 858 27.5 858C25.0147 858 23 855.985 23 853.5Z" fill="#E9E9E9"/>
<path d="M23 882.5C23 880.015 25.0147 878 27.5 878C29.9853 878 32 880.015 32 882.5C32 884.985 29.9853 887 27.5 887C25.0147 887 23 884.985 23 882.5Z" fill="#E9E9E9"/>
<path d="M23 916.5C23 914.015 25.0147 912 27.5 912C29.9853 912 32 914.015 32 916.5C32 918.985 29.9853 921 27.5 921C25.0147 921 23 918.985 23 916.5Z" fill="#E9E9E9"/>
<path d="M23 955.5C23 953.015 25.0147 951 27.5 951C29.9853 951 32 953.015 32 955.5C32 957.985 29.9853 960 27.5 960C25.0147 960 23 957.985 23 955.5Z" fill="#E9E9E9"/>
<path d="M23 999.5C23 997.015 25.0147 995 27.5 995C29.9853 995 32 997.015 32 999.5C32 1001.99 29.9853 1004 27.5 1004C25.0147 1004 23 1001.99 23 999.5Z" fill="#E9E9E9"/>
<path d="M23 1043.5C23 1041.01 25.0147 1039 27.5 1039C29.9853 1039 32 1041.01 32 1043.5C32 1045.99 29.9853 1048 27.5 1048C25.0147 1048 23 1045.99 23 1043.5Z" fill="#E9E9E9"/>
<path d="M41 4.5C41 2.01472 43.0147 0 45.5 0C47.9853 0 50 2.01472 50 4.5C50 6.98528 47.9853 9 45.5 9C43.0147 9 41 6.98528 41 4.5Z" fill="#E9E9E9"/>
<path d="M41 18.5C41 16.0147 43.0147 14 45.5 14C47.9853 14 50 16.0147 50 18.5C50 20.9853 47.9853 23 45.5 23C43.0147 23 41 20.9853 41 18.5Z" fill="#E9E9E9"/>
<path d="M41 37.5C41 35.0147 43.0147 33 45.5 33C47.9853 33 50 35.0147 50 37.5C50 39.9853 47.9853 42 45.5 42C43.0147 42 41 39.9853 41 37.5Z" fill="#E9E9E9"/>
<path d="M41 61.5C41 59.0147 43.0147 57 45.5 57C47.9853 57 50 59.0147 50 61.5C50 63.9853 47.9853 66 45.5 66C43.0147 66 41 63.9853 41 61.5Z" fill="#E9E9E9"/>
<path d="M41 90.5C41 88.0147 43.0147 86 45.5 86C47.9853 86 50 88.0147 50 90.5C50 92.9853 47.9853 95 45.5 95C43.0147 95 41 92.9853 41 90.5Z" fill="#E9E9E9"/>
<path d="M41 124.5C41 122.015 43.0147 120 45.5 120C47.9853 120 50 122.015 50 124.5C50 126.985 47.9853 129 45.5 129C43.0147 129 41 126.985 41 124.5Z" fill="#E9E9E9"/>
<path d="M41 163.5C41 161.015 43.0147 159 45.5 159C47.9853 159 50 161.015 50 163.5C50 165.985 47.9853 168 45.5 168C43.0147 168 41 165.985 41 163.5Z" fill="#E9E9E9"/>
<path d="M41 207.5C41 205.015 43.0147 203 45.5 203C47.9853 203 50 205.015 50 207.5C50 209.985 47.9853 212 45.5 212C43.0147 212 41 209.985 41 207.5Z" fill="#E9E9E9"/>
<path d="M41 256.5C41 254.015 43.0147 252 45.5 252C47.9853 252 50 254.015 50 256.5C50 258.985 47.9853 261 45.5 261C43.0147 261 41 258.985 41 256.5Z" fill="#E9E9E9"/>
<path d="M41 310.5C41 308.015 43.0147 306 45.5 306C47.9853 306 50 308.015 50 310.5C50 312.985 47.9853 315 45.5 315C43.0147 315 41 312.985 41 310.5Z" fill="#E9E9E9"/>
<path d="M41 369.5C41 367.015 43.0147 365 45.5 365C47.9853 365 50 367.015 50 369.5C50 371.985 47.9853 374 45.5 374C43.0147 374 41 371.985 41 369.5Z" fill="#E9E9E9"/>
<path d="M41 433.5C41 431.015 43.0147 429 45.5 429C47.9853 429 50 431.015 50 433.5C50 435.985 47.9853 438 45.5 438C43.0147 438 41 435.985 41 433.5Z" fill="#E9E9E9"/>
<path d="M41 497.5C41 495.015 43.0147 493 45.5 493C47.9853 493 50 495.015 50 497.5C50 499.985 47.9853 502 45.5 502C43.0147 502 41 499.985 41 497.5Z" fill="#E9E9E9"/>
<path d="M41 556.5C41 554.015 43.0147 552 45.5 552C47.9853 552 50 554.015 50 556.5C50 558.985 47.9853 561 45.5 561C43.0147 561 41 558.985 41 556.5Z" fill="#E9E9E9"/>
<path d="M41 610.5C41 608.015 43.0147 606 45.5 606C47.9853 606 50 608.015 50 610.5C50 612.985 47.9853 615 45.5 615C43.0147 615 41 612.985 41 610.5Z" fill="#E9E9E9"/>
<path d="M41 659.5C41 657.015 43.0147 655 45.5 655C47.9853 655 50 657.015 50 659.5C50 661.985 47.9853 664 45.5 664C43.0147 664 41 661.985 41 659.5Z" fill="#E9E9E9"/>
<path d="M41 703.5C41 701.015 43.0147 699 45.5 699C47.9853 699 50 701.015 50 703.5C50 705.985 47.9853 708 45.5 708C43.0147 708 41 705.985 41 703.5Z" fill="#E9E9E9"/>
<path d="M41 742.5C41 740.015 43.0147 738 45.5 738C47.9853 738 50 740.015 50 742.5C50 744.985 47.9853 747 45.5 747C43.0147 747 41 744.985 41 742.5Z" fill="#E9E9E9"/>
<path d="M41 776.5C41 774.015 43.0147 772 45.5 772C47.9853 772 50 774.015 50 776.5C50 778.985 47.9853 781 45.5 781C43.0147 781 41 778.985 41 776.5Z" fill="#E9E9E9"/>
<path d="M41 805.5C41 803.015 43.0147 801 45.5 801C47.9853 801 50 803.015 50 805.5C50 807.985 47.9853 810 45.5 810C43.0147 810 41 807.985 41 805.5Z" fill="#E9E9E9"/>
<path d="M41 829.5C41 827.015 43.0147 825 45.5 825C47.9853 825 50 827.015 50 829.5C50 831.985 47.9853 834 45.5 834C43.0147 834 41 831.985 41 829.5Z" fill="#E9E9E9"/>
<path d="M41 853.5C41 851.015 43.0147 849 45.5 849C47.9853 849 50 851.015 50 853.5C50 855.985 47.9853 858 45.5 858C43.0147 858 41 855.985 41 853.5Z" fill="#E9E9E9"/>
<path d="M41 882.5C41 880.015 43.0147 878 45.5 878C47.9853 878 50 880.015 50 882.5C50 884.985 47.9853 887 45.5 887C43.0147 887 41 884.985 41 882.5Z" fill="#E9E9E9"/>
<path d="M41 916.5C41 914.015 43.0147 912 45.5 912C47.9853 912 50 914.015 50 916.5C50 918.985 47.9853 921 45.5 921C43.0147 921 41 918.985 41 916.5Z" fill="#E9E9E9"/>
<path d="M41 955.5C41 953.015 43.0147 951 45.5 951C47.9853 951 50 953.015 50 955.5C50 957.985 47.9853 960 45.5 960C43.0147 960 41 957.985 41 955.5Z" fill="#E9E9E9"/>
<path d="M41 999.5C41 997.015 43.0147 995 45.5 995C47.9853 995 50 997.015 50 999.5C50 1001.99 47.9853 1004 45.5 1004C43.0147 1004 41 1001.99 41 999.5Z" fill="#E9E9E9"/>
<path d="M41 1043.5C41 1041.01 43.0147 1039 45.5 1039C47.9853 1039 50 1041.01 50 1043.5C50 1045.99 47.9853 1048 45.5 1048C43.0147 1048 41 1045.99 41 1043.5Z" fill="#E9E9E9"/>
<path d="M64 4.5C64 2.01472 66.0147 0 68.5 0C70.9853 0 73 2.01472 73 4.5C73 6.98528 70.9853 9 68.5 9C66.0147 9 64 6.98528 64 4.5Z" fill="#E9E9E9"/>
<path d="M64 18.5C64 16.0147 66.0147 14 68.5 14C70.9853 14 73 16.0147 73 18.5C73 20.9853 70.9853 23 68.5 23C66.0147 23 64 20.9853 64 18.5Z" fill="#E9E9E9"/>
<path d="M64 37.5C64 35.0147 66.0147 33 68.5 33C70.9853 33 73 35.0147 73 37.5C73 39.9853 70.9853 42 68.5 42C66.0147 42 64 39.9853 64 37.5Z" fill="#E9E9E9"/>
<path d="M64 61.5C64 59.0147 66.0147 57 68.5 57C70.9853 57 73 59.0147 73 61.5C73 63.9853 70.9853 66 68.5 66C66.0147 66 64 63.9853 64 61.5Z" fill="#E9E9E9"/>
<path d="M64 90.5C64 88.0147 66.0147 86 68.5 86C70.9853 86 73 88.0147 73 90.5C73 92.9853 70.9853 95 68.5 95C66.0147 95 64 92.9853 64 90.5Z" fill="#E9E9E9"/>
<path d="M64 124.5C64 122.015 66.0147 120 68.5 120C70.9853 120 73 122.015 73 124.5C73 126.985 70.9853 129 68.5 129C66.0147 129 64 126.985 64 124.5Z" fill="#E9E9E9"/>
<path d="M64 163.5C64 161.015 66.0147 159 68.5 159C70.9853 159 73 161.015 73 163.5C73 165.985 70.9853 168 68.5 168C66.0147 168 64 165.985 64 163.5Z" fill="#E9E9E9"/>
<path d="M64 207.5C64 205.015 66.0147 203 68.5 203C70.9853 203 73 205.015 73 207.5C73 209.985 70.9853 212 68.5 212C66.0147 212 64 209.985 64 207.5Z" fill="#E9E9E9"/>
<path d="M64 256.5C64 254.015 66.0147 252 68.5 252C70.9853 252 73 254.015 73 256.5C73 258.985 70.9853 261 68.5 261C66.0147 261 64 258.985 64 256.5Z" fill="#E9E9E9"/>
<path d="M64 310.5C64 308.015 66.0147 306 68.5 306C70.9853 306 73 308.015 73 310.5C73 312.985 70.9853 315 68.5 315C66.0147 315 64 312.985 64 310.5Z" fill="#E9E9E9"/>
<path d="M64 369.5C64 367.015 66.0147 365 68.5 365C70.9853 365 73 367.015 73 369.5C73 371.985 70.9853 374 68.5 374C66.0147 374 64 371.985 64 369.5Z" fill="#E9E9E9"/>
<path d="M64 433.5C64 431.015 66.0147 429 68.5 429C70.9853 429 73 431.015 73 433.5C73 435.985 70.9853 438 68.5 438C66.0147 438 64 435.985 64 433.5Z" fill="#E9E9E9"/>
<path d="M64 497.5C64 495.015 66.0147 493 68.5 493C70.9853 493 73 495.015 73 497.5C73 499.985 70.9853 502 68.5 502C66.0147 502 64 499.985 64 497.5Z" fill="#E9E9E9"/>
<path d="M64 556.5C64 554.015 66.0147 552 68.5 552C70.9853 552 73 554.015 73 556.5C73 558.985 70.9853 561 68.5 561C66.0147 561 64 558.985 64 556.5Z" fill="#E9E9E9"/>
<path d="M64 610.5C64 608.015 66.0147 606 68.5 606C70.9853 606 73 608.015 73 610.5C73 612.985 70.9853 615 68.5 615C66.0147 615 64 612.985 64 610.5Z" fill="#E9E9E9"/>
<path d="M64 659.5C64 657.015 66.0147 655 68.5 655C70.9853 655 73 657.015 73 659.5C73 661.985 70.9853 664 68.5 664C66.0147 664 64 661.985 64 659.5Z" fill="#E9E9E9"/>
<path d="M64 703.5C64 701.015 66.0147 699 68.5 699C70.9853 699 73 701.015 73 703.5C73 705.985 70.9853 708 68.5 708C66.0147 708 64 705.985 64 703.5Z" fill="#E9E9E9"/>
<path d="M64 742.5C64 740.015 66.0147 738 68.5 738C70.9853 738 73 740.015 73 742.5C73 744.985 70.9853 747 68.5 747C66.0147 747 64 744.985 64 742.5Z" fill="#E9E9E9"/>
<path d="M64 776.5C64 774.015 66.0147 772 68.5 772C70.9853 772 73 774.015 73 776.5C73 778.985 70.9853 781 68.5 781C66.0147 781 64 778.985 64 776.5Z" fill="#E9E9E9"/>
<path d="M64 805.5C64 803.015 66.0147 801 68.5 801C70.9853 801 73 803.015 73 805.5C73 807.985 70.9853 810 68.5 810C66.0147 810 64 807.985 64 805.5Z" fill="#E9E9E9"/>
<path d="M64 829.5C64 827.015 66.0147 825 68.5 825C70.9853 825 73 827.015 73 829.5C73 831.985 70.9853 834 68.5 834C66.0147 834 64 831.985 64 829.5Z" fill="#E9E9E9"/>
<path d="M64 853.5C64 851.015 66.0147 849 68.5 849C70.9853 849 73 851.015 73 853.5C73 855.985 70.9853 858 68.5 858C66.0147 858 64 855.985 64 853.5Z" fill="#E9E9E9"/>
<path d="M64 882.5C64 880.015 66.0147 878 68.5 878C70.9853 878 73 880.015 73 882.5C73 884.985 70.9853 887 68.5 887C66.0147 887 64 884.985 64 882.5Z" fill="#E9E9E9"/>
<path d="M64 916.5C64 914.015 66.0147 912 68.5 912C70.9853 912 73 914.015 73 916.5C73 918.985 70.9853 921 68.5 921C66.0147 921 64 918.985 64 916.5Z" fill="#E9E9E9"/>
<path d="M64 955.5C64 953.015 66.0147 951 68.5 951C70.9853 951 73 953.015 73 955.5C73 957.985 70.9853 960 68.5 960C66.0147 960 64 957.985 64 955.5Z" fill="#E9E9E9"/>
<path d="M64 999.5C64 997.015 66.0147 995 68.5 995C70.9853 995 73 997.015 73 999.5C73 1001.99 70.9853 1004 68.5 1004C66.0147 1004 64 1001.99 64 999.5Z" fill="#E9E9E9"/>
<path d="M64 1043.5C64 1041.01 66.0147 1039 68.5 1039C70.9853 1039 73 1041.01 73 1043.5C73 1045.99 70.9853 1048 68.5 1048C66.0147 1048 64 1045.99 64 1043.5Z" fill="#E9E9E9"/>
<path d="M92 4.5C92 2.01472 94.0147 0 96.5 0C98.9853 0 101 2.01472 101 4.5C101 6.98528 98.9853 9 96.5 9C94.0147 9 92 6.98528 92 4.5Z" fill="#E9E9E9"/>
<path d="M92 18.5C92 16.0147 94.0147 14 96.5 14C98.9853 14 101 16.0147 101 18.5C101 20.9853 98.9853 23 96.5 23C94.0147 23 92 20.9853 92 18.5Z" fill="#E9E9E9"/>
<path d="M92 37.5C92 35.0147 94.0147 33 96.5 33C98.9853 33 101 35.0147 101 37.5C101 39.9853 98.9853 42 96.5 42C94.0147 42 92 39.9853 92 37.5Z" fill="#E9E9E9"/>
<path d="M92 61.5C92 59.0147 94.0147 57 96.5 57C98.9853 57 101 59.0147 101 61.5C101 63.9853 98.9853 66 96.5 66C94.0147 66 92 63.9853 92 61.5Z" fill="#E9E9E9"/>
<path d="M92 90.5C92 88.0147 94.0147 86 96.5 86C98.9853 86 101 88.0147 101 90.5C101 92.9853 98.9853 95 96.5 95C94.0147 95 92 92.9853 92 90.5Z" fill="#E9E9E9"/>
<path d="M92 124.5C92 122.015 94.0147 120 96.5 120C98.9853 120 101 122.015 101 124.5C101 126.985 98.9853 129 96.5 129C94.0147 129 92 126.985 92 124.5Z" fill="#E9E9E9"/>
<path d="M92 163.5C92 161.015 94.0147 159 96.5 159C98.9853 159 101 161.015 101 163.5C101 165.985 98.9853 168 96.5 168C94.0147 168 92 165.985 92 163.5Z" fill="#E9E9E9"/>
<path d="M92 207.5C92 205.015 94.0147 203 96.5 203C98.9853 203 101 205.015 101 207.5C101 209.985 98.9853 212 96.5 212C94.0147 212 92 209.985 92 207.5Z" fill="#E9E9E9"/>
<path d="M92 256.5C92 254.015 94.0147 252 96.5 252C98.9853 252 101 254.015 101 256.5C101 258.985 98.9853 261 96.5 261C94.0147 261 92 258.985 92 256.5Z" fill="#E9E9E9"/>
<path d="M92 310.5C92 308.015 94.0147 306 96.5 306C98.9853 306 101 308.015 101 310.5C101 312.985 98.9853 315 96.5 315C94.0147 315 92 312.985 92 310.5Z" fill="#E9E9E9"/>
<path d="M92 369.5C92 367.015 94.0147 365 96.5 365C98.9853 365 101 367.015 101 369.5C101 371.985 98.9853 374 96.5 374C94.0147 374 92 371.985 92 369.5Z" fill="#E9E9E9"/>
<path d="M92 433.5C92 431.015 94.0147 429 96.5 429C98.9853 429 101 431.015 101 433.5C101 435.985 98.9853 438 96.5 438C94.0147 438 92 435.985 92 433.5Z" fill="#E9E9E9"/>
<path d="M92 497.5C92 495.015 94.0147 493 96.5 493C98.9853 493 101 495.015 101 497.5C101 499.985 98.9853 502 96.5 502C94.0147 502 92 499.985 92 497.5Z" fill="#E9E9E9"/>
<path d="M92 556.5C92 554.015 94.0147 552 96.5 552C98.9853 552 101 554.015 101 556.5C101 558.985 98.9853 561 96.5 561C94.0147 561 92 558.985 92 556.5Z" fill="#E9E9E9"/>
<path d="M92 610.5C92 608.015 94.0147 606 96.5 606C98.9853 606 101 608.015 101 610.5C101 612.985 98.9853 615 96.5 615C94.0147 615 92 612.985 92 610.5Z" fill="#E9E9E9"/>
<path d="M92 659.5C92 657.015 94.0147 655 96.5 655C98.9853 655 101 657.015 101 659.5C101 661.985 98.9853 664 96.5 664C94.0147 664 92 661.985 92 659.5Z" fill="#E9E9E9"/>
<path d="M92 703.5C92 701.015 94.0147 699 96.5 699C98.9853 699 101 701.015 101 703.5C101 705.985 98.9853 708 96.5 708C94.0147 708 92 705.985 92 703.5Z" fill="#E9E9E9"/>
<path d="M92 742.5C92 740.015 94.0147 738 96.5 738C98.9853 738 101 740.015 101 742.5C101 744.985 98.9853 747 96.5 747C94.0147 747 92 744.985 92 742.5Z" fill="#E9E9E9"/>
<path d="M92 776.5C92 774.015 94.0147 772 96.5 772C98.9853 772 101 774.015 101 776.5C101 778.985 98.9853 781 96.5 781C94.0147 781 92 778.985 92 776.5Z" fill="#E9E9E9"/>
<path d="M92 805.5C92 803.015 94.0147 801 96.5 801C98.9853 801 101 803.015 101 805.5C101 807.985 98.9853 810 96.5 810C94.0147 810 92 807.985 92 805.5Z" fill="#E9E9E9"/>
<path d="M92 829.5C92 827.015 94.0147 825 96.5 825C98.9853 825 101 827.015 101 829.5C101 831.985 98.9853 834 96.5 834C94.0147 834 92 831.985 92 829.5Z" fill="#E9E9E9"/>
<path d="M92 853.5C92 851.015 94.0147 849 96.5 849C98.9853 849 101 851.015 101 853.5C101 855.985 98.9853 858 96.5 858C94.0147 858 92 855.985 92 853.5Z" fill="#E9E9E9"/>
<path d="M92 882.5C92 880.015 94.0147 878 96.5 878C98.9853 878 101 880.015 101 882.5C101 884.985 98.9853 887 96.5 887C94.0147 887 92 884.985 92 882.5Z" fill="#E9E9E9"/>
<path d="M92 916.5C92 914.015 94.0147 912 96.5 912C98.9853 912 101 914.015 101 916.5C101 918.985 98.9853 921 96.5 921C94.0147 921 92 918.985 92 916.5Z" fill="#E9E9E9"/>
<path d="M92 955.5C92 953.015 94.0147 951 96.5 951C98.9853 951 101 953.015 101 955.5C101 957.985 98.9853 960 96.5 960C94.0147 960 92 957.985 92 955.5Z" fill="#E9E9E9"/>
<path d="M92 999.5C92 997.015 94.0147 995 96.5 995C98.9853 995 101 997.015 101 999.5C101 1001.99 98.9853 1004 96.5 1004C94.0147 1004 92 1001.99 92 999.5Z" fill="#E9E9E9"/>
<path d="M92 1043.5C92 1041.01 94.0147 1039 96.5 1039C98.9853 1039 101 1041.01 101 1043.5C101 1045.99 98.9853 1048 96.5 1048C94.0147 1048 92 1045.99 92 1043.5Z" fill="#E9E9E9"/>
<path d="M125 4.5C125 2.01472 127.015 0 129.5 0C131.985 0 134 2.01472 134 4.5C134 6.98528 131.985 9 129.5 9C127.015 9 125 6.98528 125 4.5Z" fill="#E9E9E9"/>
<path d="M125 18.5C125 16.0147 127.015 14 129.5 14C131.985 14 134 16.0147 134 18.5C134 20.9853 131.985 23 129.5 23C127.015 23 125 20.9853 125 18.5Z" fill="#E9E9E9"/>
<path d="M125 37.5C125 35.0147 127.015 33 129.5 33C131.985 33 134 35.0147 134 37.5C134 39.9853 131.985 42 129.5 42C127.015 42 125 39.9853 125 37.5Z" fill="#E9E9E9"/>
<path d="M125 61.5C125 59.0147 127.015 57 129.5 57C131.985 57 134 59.0147 134 61.5C134 63.9853 131.985 66 129.5 66C127.015 66 125 63.9853 125 61.5Z" fill="#E9E9E9"/>
<path d="M125 90.5C125 88.0147 127.015 86 129.5 86C131.985 86 134 88.0147 134 90.5C134 92.9853 131.985 95 129.5 95C127.015 95 125 92.9853 125 90.5Z" fill="#E9E9E9"/>
<path d="M125 124.5C125 122.015 127.015 120 129.5 120C131.985 120 134 122.015 134 124.5C134 126.985 131.985 129 129.5 129C127.015 129 125 126.985 125 124.5Z" fill="#E9E9E9"/>
<path d="M125 163.5C125 161.015 127.015 159 129.5 159C131.985 159 134 161.015 134 163.5C134 165.985 131.985 168 129.5 168C127.015 168 125 165.985 125 163.5Z" fill="#E9E9E9"/>
<path d="M125 207.5C125 205.015 127.015 203 129.5 203C131.985 203 134 205.015 134 207.5C134 209.985 131.985 212 129.5 212C127.015 212 125 209.985 125 207.5Z" fill="#E9E9E9"/>
<path d="M125 256.5C125 254.015 127.015 252 129.5 252C131.985 252 134 254.015 134 256.5C134 258.985 131.985 261 129.5 261C127.015 261 125 258.985 125 256.5Z" fill="#E9E9E9"/>
<path d="M125 310.5C125 308.015 127.015 306 129.5 306C131.985 306 134 308.015 134 310.5C134 312.985 131.985 315 129.5 315C127.015 315 125 312.985 125 310.5Z" fill="#E9E9E9"/>
<path d="M125 369.5C125 367.015 127.015 365 129.5 365C131.985 365 134 367.015 134 369.5C134 371.985 131.985 374 129.5 374C127.015 374 125 371.985 125 369.5Z" fill="#E9E9E9"/>
<path d="M125 433.5C125 431.015 127.015 429 129.5 429C131.985 429 134 431.015 134 433.5C134 435.985 131.985 438 129.5 438C127.015 438 125 435.985 125 433.5Z" fill="#E9E9E9"/>
<path d="M125 497.5C125 495.015 127.015 493 129.5 493C131.985 493 134 495.015 134 497.5C134 499.985 131.985 502 129.5 502C127.015 502 125 499.985 125 497.5Z" fill="#E9E9E9"/>
<path d="M125 556.5C125 554.015 127.015 552 129.5 552C131.985 552 134 554.015 134 556.5C134 558.985 131.985 561 129.5 561C127.015 561 125 558.985 125 556.5Z" fill="#E9E9E9"/>
<path d="M125 610.5C125 608.015 127.015 606 129.5 606C131.985 606 134 608.015 134 610.5C134 612.985 131.985 615 129.5 615C127.015 615 125 612.985 125 610.5Z" fill="#E9E9E9"/>
<path d="M125 659.5C125 657.015 127.015 655 129.5 655C131.985 655 134 657.015 134 659.5C134 661.985 131.985 664 129.5 664C127.015 664 125 661.985 125 659.5Z" fill="#E9E9E9"/>
<path d="M125 703.5C125 701.015 127.015 699 129.5 699C131.985 699 134 701.015 134 703.5C134 705.985 131.985 708 129.5 708C127.015 708 125 705.985 125 703.5Z" fill="#E9E9E9"/>
<path d="M125 742.5C125 740.015 127.015 738 129.5 738C131.985 738 134 740.015 134 742.5C134 744.985 131.985 747 129.5 747C127.015 747 125 744.985 125 742.5Z" fill="#E9E9E9"/>
<path d="M125 776.5C125 774.015 127.015 772 129.5 772C131.985 772 134 774.015 134 776.5C134 778.985 131.985 781 129.5 781C127.015 781 125 778.985 125 776.5Z" fill="#E9E9E9"/>
<path d="M125 805.5C125 803.015 127.015 801 129.5 801C131.985 801 134 803.015 134 805.5C134 807.985 131.985 810 129.5 810C127.015 810 125 807.985 125 805.5Z" fill="#E9E9E9"/>
<path d="M125 829.5C125 827.015 127.015 825 129.5 825C131.985 825 134 827.015 134 829.5C134 831.985 131.985 834 129.5 834C127.015 834 125 831.985 125 829.5Z" fill="#E9E9E9"/>
<path d="M125 853.5C125 851.015 127.015 849 129.5 849C131.985 849 134 851.015 134 853.5C134 855.985 131.985 858 129.5 858C127.015 858 125 855.985 125 853.5Z" fill="#E9E9E9"/>
<path d="M125 882.5C125 880.015 127.015 878 129.5 878C131.985 878 134 880.015 134 882.5C134 884.985 131.985 887 129.5 887C127.015 887 125 884.985 125 882.5Z" fill="#E9E9E9"/>
<path d="M125 916.5C125 914.015 127.015 912 129.5 912C131.985 912 134 914.015 134 916.5C134 918.985 131.985 921 129.5 921C127.015 921 125 918.985 125 916.5Z" fill="#E9E9E9"/>
<path d="M125 955.5C125 953.015 127.015 951 129.5 951C131.985 951 134 953.015 134 955.5C134 957.985 131.985 960 129.5 960C127.015 960 125 957.985 125 955.5Z" fill="#E9E9E9"/>
<path d="M125 999.5C125 997.015 127.015 995 129.5 995C131.985 995 134 997.015 134 999.5C134 1001.99 131.985 1004 129.5 1004C127.015 1004 125 1001.99 125 999.5Z" fill="#E9E9E9"/>
<path d="M125 1043.5C125 1041.01 127.015 1039 129.5 1039C131.985 1039 134 1041.01 134 1043.5C134 1045.99 131.985 1048 129.5 1048C127.015 1048 125 1045.99 125 1043.5Z" fill="#E9E9E9"/>
<path d="M163 4.5C163 2.01472 165.015 0 167.5 0C169.985 0 172 2.01472 172 4.5C172 6.98528 169.985 9 167.5 9C165.015 9 163 6.98528 163 4.5Z" fill="#E9E9E9"/>
<path d="M163 18.5C163 16.0147 165.015 14 167.5 14C169.985 14 172 16.0147 172 18.5C172 20.9853 169.985 23 167.5 23C165.015 23 163 20.9853 163 18.5Z" fill="#E9E9E9"/>
<path d="M163 37.5C163 35.0147 165.015 33 167.5 33C169.985 33 172 35.0147 172 37.5C172 39.9853 169.985 42 167.5 42C165.015 42 163 39.9853 163 37.5Z" fill="#E9E9E9"/>
<path d="M163 61.5C163 59.0147 165.015 57 167.5 57C169.985 57 172 59.0147 172 61.5C172 63.9853 169.985 66 167.5 66C165.015 66 163 63.9853 163 61.5Z" fill="#E9E9E9"/>
<path d="M163 90.5C163 88.0147 165.015 86 167.5 86C169.985 86 172 88.0147 172 90.5C172 92.9853 169.985 95 167.5 95C165.015 95 163 92.9853 163 90.5Z" fill="#E9E9E9"/>
<path d="M163 124.5C163 122.015 165.015 120 167.5 120C169.985 120 172 122.015 172 124.5C172 126.985 169.985 129 167.5 129C165.015 129 163 126.985 163 124.5Z" fill="#E9E9E9"/>
<path d="M163 163.5C163 161.015 165.015 159 167.5 159C169.985 159 172 161.015 172 163.5C172 165.985 169.985 168 167.5 168C165.015 168 163 165.985 163 163.5Z" fill="#E9E9E9"/>
<path d="M163 207.5C163 205.015 165.015 203 167.5 203C169.985 203 172 205.015 172 207.5C172 209.985 169.985 212 167.5 212C165.015 212 163 209.985 163 207.5Z" fill="#E9E9E9"/>
<path d="M163 256.5C163 254.015 165.015 252 167.5 252C169.985 252 172 254.015 172 256.5C172 258.985 169.985 261 167.5 261C165.015 261 163 258.985 163 256.5Z" fill="#E9E9E9"/>
<path d="M163 310.5C163 308.015 165.015 306 167.5 306C169.985 306 172 308.015 172 310.5C172 312.985 169.985 315 167.5 315C165.015 315 163 312.985 163 310.5Z" fill="#E9E9E9"/>
<path d="M163 369.5C163 367.015 165.015 365 167.5 365C169.985 365 172 367.015 172 369.5C172 371.985 169.985 374 167.5 374C165.015 374 163 371.985 163 369.5Z" fill="#E9E9E9"/>
<path d="M163 433.5C163 431.015 165.015 429 167.5 429C169.985 429 172 431.015 172 433.5C172 435.985 169.985 438 167.5 438C165.015 438 163 435.985 163 433.5Z" fill="#E9E9E9"/>
<path d="M163 497.5C163 495.015 165.015 493 167.5 493C169.985 493 172 495.015 172 497.5C172 499.985 169.985 502 167.5 502C165.015 502 163 499.985 163 497.5Z" fill="#E9E9E9"/>
<path d="M163 556.5C163 554.015 165.015 552 167.5 552C169.985 552 172 554.015 172 556.5C172 558.985 169.985 561 167.5 561C165.015 561 163 558.985 163 556.5Z" fill="#E9E9E9"/>
<path d="M163 610.5C163 608.015 165.015 606 167.5 606C169.985 606 172 608.015 172 610.5C172 612.985 169.985 615 167.5 615C165.015 615 163 612.985 163 610.5Z" fill="#E9E9E9"/>
<path d="M163 659.5C163 657.015 165.015 655 167.5 655C169.985 655 172 657.015 172 659.5C172 661.985 169.985 664 167.5 664C165.015 664 163 661.985 163 659.5Z" fill="#E9E9E9"/>
<path d="M163 703.5C163 701.015 165.015 699 167.5 699C169.985 699 172 701.015 172 703.5C172 705.985 169.985 708 167.5 708C165.015 708 163 705.985 163 703.5Z" fill="#E9E9E9"/>
<path d="M163 742.5C163 740.015 165.015 738 167.5 738C169.985 738 172 740.015 172 742.5C172 744.985 169.985 747 167.5 747C165.015 747 163 744.985 163 742.5Z" fill="#E9E9E9"/>
<path d="M163 776.5C163 774.015 165.015 772 167.5 772C169.985 772 172 774.015 172 776.5C172 778.985 169.985 781 167.5 781C165.015 781 163 778.985 163 776.5Z" fill="#E9E9E9"/>
<path d="M163 805.5C163 803.015 165.015 801 167.5 801C169.985 801 172 803.015 172 805.5C172 807.985 169.985 810 167.5 810C165.015 810 163 807.985 163 805.5Z" fill="#E9E9E9"/>
<path d="M163 829.5C163 827.015 165.015 825 167.5 825C169.985 825 172 827.015 172 829.5C172 831.985 169.985 834 167.5 834C165.015 834 163 831.985 163 829.5Z" fill="#E9E9E9"/>
<path d="M163 853.5C163 851.015 165.015 849 167.5 849C169.985 849 172 851.015 172 853.5C172 855.985 169.985 858 167.5 858C165.015 858 163 855.985 163 853.5Z" fill="#E9E9E9"/>
<path d="M163 882.5C163 880.015 165.015 878 167.5 878C169.985 878 172 880.015 172 882.5C172 884.985 169.985 887 167.5 887C165.015 887 163 884.985 163 882.5Z" fill="#E9E9E9"/>
<path d="M163 916.5C163 914.015 165.015 912 167.5 912C169.985 912 172 914.015 172 916.5C172 918.985 169.985 921 167.5 921C165.015 921 163 918.985 163 916.5Z" fill="#E9E9E9"/>
<path d="M163 955.5C163 953.015 165.015 951 167.5 951C169.985 951 172 953.015 172 955.5C172 957.985 169.985 960 167.5 960C165.015 960 163 957.985 163 955.5Z" fill="#E9E9E9"/>
<path d="M163 999.5C163 997.015 165.015 995 167.5 995C169.985 995 172 997.015 172 999.5C172 1001.99 169.985 1004 167.5 1004C165.015 1004 163 1001.99 163 999.5Z" fill="#E9E9E9"/>
<path d="M163 1043.5C163 1041.01 165.015 1039 167.5 1039C169.985 1039 172 1041.01 172 1043.5C172 1045.99 169.985 1048 167.5 1048C165.015 1048 163 1045.99 163 1043.5Z" fill="#E9E9E9"/>
<path d="M206 4.5C206 2.01472 208.015 0 210.5 0C212.985 0 215 2.01472 215 4.5C215 6.98528 212.985 9 210.5 9C208.015 9 206 6.98528 206 4.5Z" fill="#E9E9E9"/>
<path d="M206 18.5C206 16.0147 208.015 14 210.5 14C212.985 14 215 16.0147 215 18.5C215 20.9853 212.985 23 210.5 23C208.015 23 206 20.9853 206 18.5Z" fill="#E9E9E9"/>
<path d="M206 37.5C206 35.0147 208.015 33 210.5 33C212.985 33 215 35.0147 215 37.5C215 39.9853 212.985 42 210.5 42C208.015 42 206 39.9853 206 37.5Z" fill="#E9E9E9"/>
<path d="M206 61.5C206 59.0147 208.015 57 210.5 57C212.985 57 215 59.0147 215 61.5C215 63.9853 212.985 66 210.5 66C208.015 66 206 63.9853 206 61.5Z" fill="#E9E9E9"/>
<path d="M206 90.5C206 88.0147 208.015 86 210.5 86C212.985 86 215 88.0147 215 90.5C215 92.9853 212.985 95 210.5 95C208.015 95 206 92.9853 206 90.5Z" fill="#E9E9E9"/>
<path d="M206 124.5C206 122.015 208.015 120 210.5 120C212.985 120 215 122.015 215 124.5C215 126.985 212.985 129 210.5 129C208.015 129 206 126.985 206 124.5Z" fill="#E9E9E9"/>
<path d="M206 163.5C206 161.015 208.015 159 210.5 159C212.985 159 215 161.015 215 163.5C215 165.985 212.985 168 210.5 168C208.015 168 206 165.985 206 163.5Z" fill="#E9E9E9"/>
<path d="M206 207.5C206 205.015 208.015 203 210.5 203C212.985 203 215 205.015 215 207.5C215 209.985 212.985 212 210.5 212C208.015 212 206 209.985 206 207.5Z" fill="#E9E9E9"/>
<path d="M206 256.5C206 254.015 208.015 252 210.5 252C212.985 252 215 254.015 215 256.5C215 258.985 212.985 261 210.5 261C208.015 261 206 258.985 206 256.5Z" fill="#E9E9E9"/>
<path d="M206 310.5C206 308.015 208.015 306 210.5 306C212.985 306 215 308.015 215 310.5C215 312.985 212.985 315 210.5 315C208.015 315 206 312.985 206 310.5Z" fill="#E9E9E9"/>
<path d="M206 369.5C206 367.015 208.015 365 210.5 365C212.985 365 215 367.015 215 369.5C215 371.985 212.985 374 210.5 374C208.015 374 206 371.985 206 369.5Z" fill="#E9E9E9"/>
<path d="M206 433.5C206 431.015 208.015 429 210.5 429C212.985 429 215 431.015 215 433.5C215 435.985 212.985 438 210.5 438C208.015 438 206 435.985 206 433.5Z" fill="#E9E9E9"/>
<path d="M206 497.5C206 495.015 208.015 493 210.5 493C212.985 493 215 495.015 215 497.5C215 499.985 212.985 502 210.5 502C208.015 502 206 499.985 206 497.5Z" fill="#E9E9E9"/>
<path d="M206 556.5C206 554.015 208.015 552 210.5 552C212.985 552 215 554.015 215 556.5C215 558.985 212.985 561 210.5 561C208.015 561 206 558.985 206 556.5Z" fill="#E9E9E9"/>
<path d="M206 610.5C206 608.015 208.015 606 210.5 606C212.985 606 215 608.015 215 610.5C215 612.985 212.985 615 210.5 615C208.015 615 206 612.985 206 610.5Z" fill="#E9E9E9"/>
<path d="M206 659.5C206 657.015 208.015 655 210.5 655C212.985 655 215 657.015 215 659.5C215 661.985 212.985 664 210.5 664C208.015 664 206 661.985 206 659.5Z" fill="#E9E9E9"/>
<path d="M206 703.5C206 701.015 208.015 699 210.5 699C212.985 699 215 701.015 215 703.5C215 705.985 212.985 708 210.5 708C208.015 708 206 705.985 206 703.5Z" fill="#E9E9E9"/>
<path d="M206 742.5C206 740.015 208.015 738 210.5 738C212.985 738 215 740.015 215 742.5C215 744.985 212.985 747 210.5 747C208.015 747 206 744.985 206 742.5Z" fill="#E9E9E9"/>
<path d="M206 776.5C206 774.015 208.015 772 210.5 772C212.985 772 215 774.015 215 776.5C215 778.985 212.985 781 210.5 781C208.015 781 206 778.985 206 776.5Z" fill="#E9E9E9"/>
<path d="M206 805.5C206 803.015 208.015 801 210.5 801C212.985 801 215 803.015 215 805.5C215 807.985 212.985 810 210.5 810C208.015 810 206 807.985 206 805.5Z" fill="#E9E9E9"/>
<path d="M206 829.5C206 827.015 208.015 825 210.5 825C212.985 825 215 827.015 215 829.5C215 831.985 212.985 834 210.5 834C208.015 834 206 831.985 206 829.5Z" fill="#E9E9E9"/>
<path d="M206 853.5C206 851.015 208.015 849 210.5 849C212.985 849 215 851.015 215 853.5C215 855.985 212.985 858 210.5 858C208.015 858 206 855.985 206 853.5Z" fill="#E9E9E9"/>
<path d="M206 882.5C206 880.015 208.015 878 210.5 878C212.985 878 215 880.015 215 882.5C215 884.985 212.985 887 210.5 887C208.015 887 206 884.985 206 882.5Z" fill="#E9E9E9"/>
<path d="M206 916.5C206 914.015 208.015 912 210.5 912C212.985 912 215 914.015 215 916.5C215 918.985 212.985 921 210.5 921C208.015 921 206 918.985 206 916.5Z" fill="#E9E9E9"/>
<path d="M206 955.5C206 953.015 208.015 951 210.5 951C212.985 951 215 953.015 215 955.5C215 957.985 212.985 960 210.5 960C208.015 960 206 957.985 206 955.5Z" fill="#E9E9E9"/>
<path d="M206 999.5C206 997.015 208.015 995 210.5 995C212.985 995 215 997.015 215 999.5C215 1001.99 212.985 1004 210.5 1004C208.015 1004 206 1001.99 206 999.5Z" fill="#E9E9E9"/>
<path d="M206 1043.5C206 1041.01 208.015 1039 210.5 1039C212.985 1039 215 1041.01 215 1043.5C215 1045.99 212.985 1048 210.5 1048C208.015 1048 206 1045.99 206 1043.5Z" fill="#E9E9E9"/>
<path d="M254 4.5C254 2.01472 256.015 0 258.5 0C260.985 0 263 2.01472 263 4.5C263 6.98528 260.985 9 258.5 9C256.015 9 254 6.98528 254 4.5Z" fill="#E9E9E9"/>
<path d="M254 18.5C254 16.0147 256.015 14 258.5 14C260.985 14 263 16.0147 263 18.5C263 20.9853 260.985 23 258.5 23C256.015 23 254 20.9853 254 18.5Z" fill="#E9E9E9"/>
<path d="M254 37.5C254 35.0147 256.015 33 258.5 33C260.985 33 263 35.0147 263 37.5C263 39.9853 260.985 42 258.5 42C256.015 42 254 39.9853 254 37.5Z" fill="#E9E9E9"/>
<path d="M254 61.5C254 59.0147 256.015 57 258.5 57C260.985 57 263 59.0147 263 61.5C263 63.9853 260.985 66 258.5 66C256.015 66 254 63.9853 254 61.5Z" fill="#E9E9E9"/>
<path d="M254 90.5C254 88.0147 256.015 86 258.5 86C260.985 86 263 88.0147 263 90.5C263 92.9853 260.985 95 258.5 95C256.015 95 254 92.9853 254 90.5Z" fill="#E9E9E9"/>
<path d="M254 124.5C254 122.015 256.015 120 258.5 120C260.985 120 263 122.015 263 124.5C263 126.985 260.985 129 258.5 129C256.015 129 254 126.985 254 124.5Z" fill="#E9E9E9"/>
<path d="M254 163.5C254 161.015 256.015 159 258.5 159C260.985 159 263 161.015 263 163.5C263 165.985 260.985 168 258.5 168C256.015 168 254 165.985 254 163.5Z" fill="#E9E9E9"/>
<path d="M254 207.5C254 205.015 256.015 203 258.5 203C260.985 203 263 205.015 263 207.5C263 209.985 260.985 212 258.5 212C256.015 212 254 209.985 254 207.5Z" fill="#E9E9E9"/>
<path d="M254 256.5C254 254.015 256.015 252 258.5 252C260.985 252 263 254.015 263 256.5C263 258.985 260.985 261 258.5 261C256.015 261 254 258.985 254 256.5Z" fill="#E9E9E9"/>
<path d="M254 310.5C254 308.015 256.015 306 258.5 306C260.985 306 263 308.015 263 310.5C263 312.985 260.985 315 258.5 315C256.015 315 254 312.985 254 310.5Z" fill="#E9E9E9"/>
<path d="M254 369.5C254 367.015 256.015 365 258.5 365C260.985 365 263 367.015 263 369.5C263 371.985 260.985 374 258.5 374C256.015 374 254 371.985 254 369.5Z" fill="#E9E9E9"/>
<path d="M254 433.5C254 431.015 256.015 429 258.5 429C260.985 429 263 431.015 263 433.5C263 435.985 260.985 438 258.5 438C256.015 438 254 435.985 254 433.5Z" fill="#E9E9E9"/>
<path d="M254 497.5C254 495.015 256.015 493 258.5 493C260.985 493 263 495.015 263 497.5C263 499.985 260.985 502 258.5 502C256.015 502 254 499.985 254 497.5Z" fill="#E9E9E9"/>
<path d="M254 556.5C254 554.015 256.015 552 258.5 552C260.985 552 263 554.015 263 556.5C263 558.985 260.985 561 258.5 561C256.015 561 254 558.985 254 556.5Z" fill="#E9E9E9"/>
<path d="M254 610.5C254 608.015 256.015 606 258.5 606C260.985 606 263 608.015 263 610.5C263 612.985 260.985 615 258.5 615C256.015 615 254 612.985 254 610.5Z" fill="#E9E9E9"/>
<path d="M254 659.5C254 657.015 256.015 655 258.5 655C260.985 655 263 657.015 263 659.5C263 661.985 260.985 664 258.5 664C256.015 664 254 661.985 254 659.5Z" fill="#E9E9E9"/>
<path d="M254 703.5C254 701.015 256.015 699 258.5 699C260.985 699 263 701.015 263 703.5C263 705.985 260.985 708 258.5 708C256.015 708 254 705.985 254 703.5Z" fill="#E9E9E9"/>
<path d="M254 742.5C254 740.015 256.015 738 258.5 738C260.985 738 263 740.015 263 742.5C263 744.985 260.985 747 258.5 747C256.015 747 254 744.985 254 742.5Z" fill="#E9E9E9"/>
<path d="M254 776.5C254 774.015 256.015 772 258.5 772C260.985 772 263 774.015 263 776.5C263 778.985 260.985 781 258.5 781C256.015 781 254 778.985 254 776.5Z" fill="#E9E9E9"/>
<path d="M254 805.5C254 803.015 256.015 801 258.5 801C260.985 801 263 803.015 263 805.5C263 807.985 260.985 810 258.5 810C256.015 810 254 807.985 254 805.5Z" fill="#E9E9E9"/>
<path d="M254 829.5C254 827.015 256.015 825 258.5 825C260.985 825 263 827.015 263 829.5C263 831.985 260.985 834 258.5 834C256.015 834 254 831.985 254 829.5Z" fill="#E9E9E9"/>
<path d="M254 853.5C254 851.015 256.015 849 258.5 849C260.985 849 263 851.015 263 853.5C263 855.985 260.985 858 258.5 858C256.015 858 254 855.985 254 853.5Z" fill="#E9E9E9"/>
<path d="M254 882.5C254 880.015 256.015 878 258.5 878C260.985 878 263 880.015 263 882.5C263 884.985 260.985 887 258.5 887C256.015 887 254 884.985 254 882.5Z" fill="#E9E9E9"/>
<path d="M254 916.5C254 914.015 256.015 912 258.5 912C260.985 912 263 914.015 263 916.5C263 918.985 260.985 921 258.5 921C256.015 921 254 918.985 254 916.5Z" fill="#E9E9E9"/>
<path d="M254 955.5C254 953.015 256.015 951 258.5 951C260.985 951 263 953.015 263 955.5C263 957.985 260.985 960 258.5 960C256.015 960 254 957.985 254 955.5Z" fill="#E9E9E9"/>
<path d="M254 999.5C254 997.015 256.015 995 258.5 995C260.985 995 263 997.015 263 999.5C263 1001.99 260.985 1004 258.5 1004C256.015 1004 254 1001.99 254 999.5Z" fill="#E9E9E9"/>
<path d="M254 1043.5C254 1041.01 256.015 1039 258.5 1039C260.985 1039 263 1041.01 263 1043.5C263 1045.99 260.985 1048 258.5 1048C256.015 1048 254 1045.99 254 1043.5Z" fill="#E9E9E9"/>
<path d="M307 4.5C307 2.01472 309.015 0 311.5 0C313.985 0 316 2.01472 316 4.5C316 6.98528 313.985 9 311.5 9C309.015 9 307 6.98528 307 4.5Z" fill="#E9E9E9"/>
<path d="M307 18.5C307 16.0147 309.015 14 311.5 14C313.985 14 316 16.0147 316 18.5C316 20.9853 313.985 23 311.5 23C309.015 23 307 20.9853 307 18.5Z" fill="#E9E9E9"/>
<path d="M307 37.5C307 35.0147 309.015 33 311.5 33C313.985 33 316 35.0147 316 37.5C316 39.9853 313.985 42 311.5 42C309.015 42 307 39.9853 307 37.5Z" fill="#E9E9E9"/>
<path d="M307 61.5C307 59.0147 309.015 57 311.5 57C313.985 57 316 59.0147 316 61.5C316 63.9853 313.985 66 311.5 66C309.015 66 307 63.9853 307 61.5Z" fill="#E9E9E9"/>
<path d="M307 90.5C307 88.0147 309.015 86 311.5 86C313.985 86 316 88.0147 316 90.5C316 92.9853 313.985 95 311.5 95C309.015 95 307 92.9853 307 90.5Z" fill="#E9E9E9"/>
<path d="M307 124.5C307 122.015 309.015 120 311.5 120C313.985 120 316 122.015 316 124.5C316 126.985 313.985 129 311.5 129C309.015 129 307 126.985 307 124.5Z" fill="#E9E9E9"/>
<path d="M307 163.5C307 161.015 309.015 159 311.5 159C313.985 159 316 161.015 316 163.5C316 165.985 313.985 168 311.5 168C309.015 168 307 165.985 307 163.5Z" fill="#E9E9E9"/>
<path d="M307 207.5C307 205.015 309.015 203 311.5 203C313.985 203 316 205.015 316 207.5C316 209.985 313.985 212 311.5 212C309.015 212 307 209.985 307 207.5Z" fill="#E9E9E9"/>
<path d="M307 256.5C307 254.015 309.015 252 311.5 252C313.985 252 316 254.015 316 256.5C316 258.985 313.985 261 311.5 261C309.015 261 307 258.985 307 256.5Z" fill="#E9E9E9"/>
<path d="M307 310.5C307 308.015 309.015 306 311.5 306C313.985 306 316 308.015 316 310.5C316 312.985 313.985 315 311.5 315C309.015 315 307 312.985 307 310.5Z" fill="#E9E9E9"/>
<path d="M307 369.5C307 367.015 309.015 365 311.5 365C313.985 365 316 367.015 316 369.5C316 371.985 313.985 374 311.5 374C309.015 374 307 371.985 307 369.5Z" fill="#E9E9E9"/>
<path d="M307 433.5C307 431.015 309.015 429 311.5 429C313.985 429 316 431.015 316 433.5C316 435.985 313.985 438 311.5 438C309.015 438 307 435.985 307 433.5Z" fill="#E9E9E9"/>
<path d="M307 497.5C307 495.015 309.015 493 311.5 493C313.985 493 316 495.015 316 497.5C316 499.985 313.985 502 311.5 502C309.015 502 307 499.985 307 497.5Z" fill="#E9E9E9"/>
<path d="M307 556.5C307 554.015 309.015 552 311.5 552C313.985 552 316 554.015 316 556.5C316 558.985 313.985 561 311.5 561C309.015 561 307 558.985 307 556.5Z" fill="#E9E9E9"/>
<path d="M307 610.5C307 608.015 309.015 606 311.5 606C313.985 606 316 608.015 316 610.5C316 612.985 313.985 615 311.5 615C309.015 615 307 612.985 307 610.5Z" fill="#E9E9E9"/>
<path d="M307 659.5C307 657.015 309.015 655 311.5 655C313.985 655 316 657.015 316 659.5C316 661.985 313.985 664 311.5 664C309.015 664 307 661.985 307 659.5Z" fill="#E9E9E9"/>
<path d="M307 703.5C307 701.015 309.015 699 311.5 699C313.985 699 316 701.015 316 703.5C316 705.985 313.985 708 311.5 708C309.015 708 307 705.985 307 703.5Z" fill="#E9E9E9"/>
<path d="M307 742.5C307 740.015 309.015 738 311.5 738C313.985 738 316 740.015 316 742.5C316 744.985 313.985 747 311.5 747C309.015 747 307 744.985 307 742.5Z" fill="#E9E9E9"/>
<path d="M307 776.5C307 774.015 309.015 772 311.5 772C313.985 772 316 774.015 316 776.5C316 778.985 313.985 781 311.5 781C309.015 781 307 778.985 307 776.5Z" fill="#E9E9E9"/>
<path d="M307 805.5C307 803.015 309.015 801 311.5 801C313.985 801 316 803.015 316 805.5C316 807.985 313.985 810 311.5 810C309.015 810 307 807.985 307 805.5Z" fill="#E9E9E9"/>
<path d="M307 829.5C307 827.015 309.015 825 311.5 825C313.985 825 316 827.015 316 829.5C316 831.985 313.985 834 311.5 834C309.015 834 307 831.985 307 829.5Z" fill="#E9E9E9"/>
<path d="M307 853.5C307 851.015 309.015 849 311.5 849C313.985 849 316 851.015 316 853.5C316 855.985 313.985 858 311.5 858C309.015 858 307 855.985 307 853.5Z" fill="#E9E9E9"/>
<path d="M307 882.5C307 880.015 309.015 878 311.5 878C313.985 878 316 880.015 316 882.5C316 884.985 313.985 887 311.5 887C309.015 887 307 884.985 307 882.5Z" fill="#E9E9E9"/>
<path d="M307 916.5C307 914.015 309.015 912 311.5 912C313.985 912 316 914.015 316 916.5C316 918.985 313.985 921 311.5 921C309.015 921 307 918.985 307 916.5Z" fill="#E9E9E9"/>
<path d="M307 955.5C307 953.015 309.015 951 311.5 951C313.985 951 316 953.015 316 955.5C316 957.985 313.985 960 311.5 960C309.015 960 307 957.985 307 955.5Z" fill="#E9E9E9"/>
<path d="M307 999.5C307 997.015 309.015 995 311.5 995C313.985 995 316 997.015 316 999.5C316 1001.99 313.985 1004 311.5 1004C309.015 1004 307 1001.99 307 999.5Z" fill="#E9E9E9"/>
<path d="M307 1043.5C307 1041.01 309.015 1039 311.5 1039C313.985 1039 316 1041.01 316 1043.5C316 1045.99 313.985 1048 311.5 1048C309.015 1048 307 1045.99 307 1043.5Z" fill="#E9E9E9"/>
<path d="M365 4.5C365 2.01472 367.015 0 369.5 0C371.985 0 374 2.01472 374 4.5C374 6.98528 371.985 9 369.5 9C367.015 9 365 6.98528 365 4.5Z" fill="#E9E9E9"/>
<path d="M365 18.5C365 16.0147 367.015 14 369.5 14C371.985 14 374 16.0147 374 18.5C374 20.9853 371.985 23 369.5 23C367.015 23 365 20.9853 365 18.5Z" fill="#E9E9E9"/>
<path d="M365 37.5C365 35.0147 367.015 33 369.5 33C371.985 33 374 35.0147 374 37.5C374 39.9853 371.985 42 369.5 42C367.015 42 365 39.9853 365 37.5Z" fill="#E9E9E9"/>
<path d="M365 61.5C365 59.0147 367.015 57 369.5 57C371.985 57 374 59.0147 374 61.5C374 63.9853 371.985 66 369.5 66C367.015 66 365 63.9853 365 61.5Z" fill="#E9E9E9"/>
<path d="M365 90.5C365 88.0147 367.015 86 369.5 86C371.985 86 374 88.0147 374 90.5C374 92.9853 371.985 95 369.5 95C367.015 95 365 92.9853 365 90.5Z" fill="#E9E9E9"/>
<path d="M365 124.5C365 122.015 367.015 120 369.5 120C371.985 120 374 122.015 374 124.5C374 126.985 371.985 129 369.5 129C367.015 129 365 126.985 365 124.5Z" fill="#E9E9E9"/>
<path d="M365 163.5C365 161.015 367.015 159 369.5 159C371.985 159 374 161.015 374 163.5C374 165.985 371.985 168 369.5 168C367.015 168 365 165.985 365 163.5Z" fill="#E9E9E9"/>
<path d="M365 207.5C365 205.015 367.015 203 369.5 203C371.985 203 374 205.015 374 207.5C374 209.985 371.985 212 369.5 212C367.015 212 365 209.985 365 207.5Z" fill="#E9E9E9"/>
<path d="M365 256.5C365 254.015 367.015 252 369.5 252C371.985 252 374 254.015 374 256.5C374 258.985 371.985 261 369.5 261C367.015 261 365 258.985 365 256.5Z" fill="#E9E9E9"/>
<path d="M365 310.5C365 308.015 367.015 306 369.5 306C371.985 306 374 308.015 374 310.5C374 312.985 371.985 315 369.5 315C367.015 315 365 312.985 365 310.5Z" fill="#E9E9E9"/>
<path d="M365 369.5C365 367.015 367.015 365 369.5 365C371.985 365 374 367.015 374 369.5C374 371.985 371.985 374 369.5 374C367.015 374 365 371.985 365 369.5Z" fill="#E9E9E9"/>
<path d="M365 433.5C365 431.015 367.015 429 369.5 429C371.985 429 374 431.015 374 433.5C374 435.985 371.985 438 369.5 438C367.015 438 365 435.985 365 433.5Z" fill="#E9E9E9"/>
<path d="M365 497.5C365 495.015 367.015 493 369.5 493C371.985 493 374 495.015 374 497.5C374 499.985 371.985 502 369.5 502C367.015 502 365 499.985 365 497.5Z" fill="#E9E9E9"/>
<path d="M365 556.5C365 554.015 367.015 552 369.5 552C371.985 552 374 554.015 374 556.5C374 558.985 371.985 561 369.5 561C367.015 561 365 558.985 365 556.5Z" fill="#E9E9E9"/>
<path d="M365 610.5C365 608.015 367.015 606 369.5 606C371.985 606 374 608.015 374 610.5C374 612.985 371.985 615 369.5 615C367.015 615 365 612.985 365 610.5Z" fill="#E9E9E9"/>
<path d="M365 659.5C365 657.015 367.015 655 369.5 655C371.985 655 374 657.015 374 659.5C374 661.985 371.985 664 369.5 664C367.015 664 365 661.985 365 659.5Z" fill="#E9E9E9"/>
<path d="M365 703.5C365 701.015 367.015 699 369.5 699C371.985 699 374 701.015 374 703.5C374 705.985 371.985 708 369.5 708C367.015 708 365 705.985 365 703.5Z" fill="#E9E9E9"/>
<path d="M365 742.5C365 740.015 367.015 738 369.5 738C371.985 738 374 740.015 374 742.5C374 744.985 371.985 747 369.5 747C367.015 747 365 744.985 365 742.5Z" fill="#E9E9E9"/>
<path d="M365 776.5C365 774.015 367.015 772 369.5 772C371.985 772 374 774.015 374 776.5C374 778.985 371.985 781 369.5 781C367.015 781 365 778.985 365 776.5Z" fill="#E9E9E9"/>
<path d="M365 805.5C365 803.015 367.015 801 369.5 801C371.985 801 374 803.015 374 805.5C374 807.985 371.985 810 369.5 810C367.015 810 365 807.985 365 805.5Z" fill="#E9E9E9"/>
<path d="M365 829.5C365 827.015 367.015 825 369.5 825C371.985 825 374 827.015 374 829.5C374 831.985 371.985 834 369.5 834C367.015 834 365 831.985 365 829.5Z" fill="#E9E9E9"/>
<path d="M365 853.5C365 851.015 367.015 849 369.5 849C371.985 849 374 851.015 374 853.5C374 855.985 371.985 858 369.5 858C367.015 858 365 855.985 365 853.5Z" fill="#E9E9E9"/>
<path d="M365 882.5C365 880.015 367.015 878 369.5 878C371.985 878 374 880.015 374 882.5C374 884.985 371.985 887 369.5 887C367.015 887 365 884.985 365 882.5Z" fill="#E9E9E9"/>
<path d="M365 916.5C365 914.015 367.015 912 369.5 912C371.985 912 374 914.015 374 916.5C374 918.985 371.985 921 369.5 921C367.015 921 365 918.985 365 916.5Z" fill="#E9E9E9"/>
<path d="M365 955.5C365 953.015 367.015 951 369.5 951C371.985 951 374 953.015 374 955.5C374 957.985 371.985 960 369.5 960C367.015 960 365 957.985 365 955.5Z" fill="#E9E9E9"/>
<path d="M365 999.5C365 997.015 367.015 995 369.5 995C371.985 995 374 997.015 374 999.5C374 1001.99 371.985 1004 369.5 1004C367.015 1004 365 1001.99 365 999.5Z" fill="#E9E9E9"/>
<path d="M365 1043.5C365 1041.01 367.015 1039 369.5 1039C371.985 1039 374 1041.01 374 1043.5C374 1045.99 371.985 1048 369.5 1048C367.015 1048 365 1045.99 365 1043.5Z" fill="#E9E9E9"/>
<path d="M428 4.5C428 2.01472 430.015 0 432.5 0C434.985 0 437 2.01472 437 4.5C437 6.98528 434.985 9 432.5 9C430.015 9 428 6.98528 428 4.5Z" fill="#E9E9E9"/>
<path d="M428 18.5C428 16.0147 430.015 14 432.5 14C434.985 14 437 16.0147 437 18.5C437 20.9853 434.985 23 432.5 23C430.015 23 428 20.9853 428 18.5Z" fill="#E9E9E9"/>
<path d="M428 37.5C428 35.0147 430.015 33 432.5 33C434.985 33 437 35.0147 437 37.5C437 39.9853 434.985 42 432.5 42C430.015 42 428 39.9853 428 37.5Z" fill="#E9E9E9"/>
<path d="M428 61.5C428 59.0147 430.015 57 432.5 57C434.985 57 437 59.0147 437 61.5C437 63.9853 434.985 66 432.5 66C430.015 66 428 63.9853 428 61.5Z" fill="#E9E9E9"/>
<path d="M428 90.5C428 88.0147 430.015 86 432.5 86C434.985 86 437 88.0147 437 90.5C437 92.9853 434.985 95 432.5 95C430.015 95 428 92.9853 428 90.5Z" fill="#E9E9E9"/>
<path d="M428 124.5C428 122.015 430.015 120 432.5 120C434.985 120 437 122.015 437 124.5C437 126.985 434.985 129 432.5 129C430.015 129 428 126.985 428 124.5Z" fill="#E9E9E9"/>
<path d="M428 163.5C428 161.015 430.015 159 432.5 159C434.985 159 437 161.015 437 163.5C437 165.985 434.985 168 432.5 168C430.015 168 428 165.985 428 163.5Z" fill="#E9E9E9"/>
<path d="M428 207.5C428 205.015 430.015 203 432.5 203C434.985 203 437 205.015 437 207.5C437 209.985 434.985 212 432.5 212C430.015 212 428 209.985 428 207.5Z" fill="#E9E9E9"/>
<path d="M428 256.5C428 254.015 430.015 252 432.5 252C434.985 252 437 254.015 437 256.5C437 258.985 434.985 261 432.5 261C430.015 261 428 258.985 428 256.5Z" fill="#E9E9E9"/>
<path d="M428 310.5C428 308.015 430.015 306 432.5 306C434.985 306 437 308.015 437 310.5C437 312.985 434.985 315 432.5 315C430.015 315 428 312.985 428 310.5Z" fill="#E9E9E9"/>
<path d="M428 369.5C428 367.015 430.015 365 432.5 365C434.985 365 437 367.015 437 369.5C437 371.985 434.985 374 432.5 374C430.015 374 428 371.985 428 369.5Z" fill="#E9E9E9"/>
<path d="M428 433.5C428 431.015 430.015 429 432.5 429C434.985 429 437 431.015 437 433.5C437 435.985 434.985 438 432.5 438C430.015 438 428 435.985 428 433.5Z" fill="#E9E9E9"/>
<path d="M428 497.5C428 495.015 430.015 493 432.5 493C434.985 493 437 495.015 437 497.5C437 499.985 434.985 502 432.5 502C430.015 502 428 499.985 428 497.5Z" fill="#E9E9E9"/>
<path d="M428 556.5C428 554.015 430.015 552 432.5 552C434.985 552 437 554.015 437 556.5C437 558.985 434.985 561 432.5 561C430.015 561 428 558.985 428 556.5Z" fill="#E9E9E9"/>
<path d="M428 610.5C428 608.015 430.015 606 432.5 606C434.985 606 437 608.015 437 610.5C437 612.985 434.985 615 432.5 615C430.015 615 428 612.985 428 610.5Z" fill="#E9E9E9"/>
<path d="M428 659.5C428 657.015 430.015 655 432.5 655C434.985 655 437 657.015 437 659.5C437 661.985 434.985 664 432.5 664C430.015 664 428 661.985 428 659.5Z" fill="#E9E9E9"/>
<path d="M428 703.5C428 701.015 430.015 699 432.5 699C434.985 699 437 701.015 437 703.5C437 705.985 434.985 708 432.5 708C430.015 708 428 705.985 428 703.5Z" fill="#E9E9E9"/>
<path d="M428 742.5C428 740.015 430.015 738 432.5 738C434.985 738 437 740.015 437 742.5C437 744.985 434.985 747 432.5 747C430.015 747 428 744.985 428 742.5Z" fill="#E9E9E9"/>
<path d="M428 776.5C428 774.015 430.015 772 432.5 772C434.985 772 437 774.015 437 776.5C437 778.985 434.985 781 432.5 781C430.015 781 428 778.985 428 776.5Z" fill="#E9E9E9"/>
<path d="M428 805.5C428 803.015 430.015 801 432.5 801C434.985 801 437 803.015 437 805.5C437 807.985 434.985 810 432.5 810C430.015 810 428 807.985 428 805.5Z" fill="#E9E9E9"/>
<path d="M428 829.5C428 827.015 430.015 825 432.5 825C434.985 825 437 827.015 437 829.5C437 831.985 434.985 834 432.5 834C430.015 834 428 831.985 428 829.5Z" fill="#E9E9E9"/>
<path d="M428 853.5C428 851.015 430.015 849 432.5 849C434.985 849 437 851.015 437 853.5C437 855.985 434.985 858 432.5 858C430.015 858 428 855.985 428 853.5Z" fill="#E9E9E9"/>
<path d="M428 882.5C428 880.015 430.015 878 432.5 878C434.985 878 437 880.015 437 882.5C437 884.985 434.985 887 432.5 887C430.015 887 428 884.985 428 882.5Z" fill="#E9E9E9"/>
<path d="M428 916.5C428 914.015 430.015 912 432.5 912C434.985 912 437 914.015 437 916.5C437 918.985 434.985 921 432.5 921C430.015 921 428 918.985 428 916.5Z" fill="#E9E9E9"/>
<path d="M428 955.5C428 953.015 430.015 951 432.5 951C434.985 951 437 953.015 437 955.5C437 957.985 434.985 960 432.5 960C430.015 960 428 957.985 428 955.5Z" fill="#E9E9E9"/>
<path d="M428 999.5C428 997.015 430.015 995 432.5 995C434.985 995 437 997.015 437 999.5C437 1001.99 434.985 1004 432.5 1004C430.015 1004 428 1001.99 428 999.5Z" fill="#E9E9E9"/>
<path d="M428 1043.5C428 1041.01 430.015 1039 432.5 1039C434.985 1039 437 1041.01 437 1043.5C437 1045.99 434.985 1048 432.5 1048C430.015 1048 428 1045.99 428 1043.5Z" fill="#E9E9E9"/>
<path d="M496 4.5C496 2.01472 498.015 0 500.5 0C502.985 0 505 2.01472 505 4.5C505 6.98528 502.985 9 500.5 9C498.015 9 496 6.98528 496 4.5Z" fill="#E9E9E9"/>
<path d="M496 18.5C496 16.0147 498.015 14 500.5 14C502.985 14 505 16.0147 505 18.5C505 20.9853 502.985 23 500.5 23C498.015 23 496 20.9853 496 18.5Z" fill="#E9E9E9"/>
<path d="M496 37.5C496 35.0147 498.015 33 500.5 33C502.985 33 505 35.0147 505 37.5C505 39.9853 502.985 42 500.5 42C498.015 42 496 39.9853 496 37.5Z" fill="#E9E9E9"/>
<path d="M496 61.5C496 59.0147 498.015 57 500.5 57C502.985 57 505 59.0147 505 61.5C505 63.9853 502.985 66 500.5 66C498.015 66 496 63.9853 496 61.5Z" fill="#E9E9E9"/>
<path d="M496 90.5C496 88.0147 498.015 86 500.5 86C502.985 86 505 88.0147 505 90.5C505 92.9853 502.985 95 500.5 95C498.015 95 496 92.9853 496 90.5Z" fill="#E9E9E9"/>
<path d="M496 124.5C496 122.015 498.015 120 500.5 120C502.985 120 505 122.015 505 124.5C505 126.985 502.985 129 500.5 129C498.015 129 496 126.985 496 124.5Z" fill="#E9E9E9"/>
<path d="M496 163.5C496 161.015 498.015 159 500.5 159C502.985 159 505 161.015 505 163.5C505 165.985 502.985 168 500.5 168C498.015 168 496 165.985 496 163.5Z" fill="#E9E9E9"/>
<path d="M496 207.5C496 205.015 498.015 203 500.5 203C502.985 203 505 205.015 505 207.5C505 209.985 502.985 212 500.5 212C498.015 212 496 209.985 496 207.5Z" fill="#E9E9E9"/>
<path d="M496 256.5C496 254.015 498.015 252 500.5 252C502.985 252 505 254.015 505 256.5C505 258.985 502.985 261 500.5 261C498.015 261 496 258.985 496 256.5Z" fill="#E9E9E9"/>
<path d="M496 310.5C496 308.015 498.015 306 500.5 306C502.985 306 505 308.015 505 310.5C505 312.985 502.985 315 500.5 315C498.015 315 496 312.985 496 310.5Z" fill="#E9E9E9"/>
<path d="M496 369.5C496 367.015 498.015 365 500.5 365C502.985 365 505 367.015 505 369.5C505 371.985 502.985 374 500.5 374C498.015 374 496 371.985 496 369.5Z" fill="#E9E9E9"/>
<path d="M496 433.5C496 431.015 498.015 429 500.5 429C502.985 429 505 431.015 505 433.5C505 435.985 502.985 438 500.5 438C498.015 438 496 435.985 496 433.5Z" fill="#E9E9E9"/>
<path d="M496 497.5C496 495.015 498.015 493 500.5 493C502.985 493 505 495.015 505 497.5C505 499.985 502.985 502 500.5 502C498.015 502 496 499.985 496 497.5Z" fill="#E9E9E9"/>
<path d="M496 556.5C496 554.015 498.015 552 500.5 552C502.985 552 505 554.015 505 556.5C505 558.985 502.985 561 500.5 561C498.015 561 496 558.985 496 556.5Z" fill="#E9E9E9"/>
<path d="M496 610.5C496 608.015 498.015 606 500.5 606C502.985 606 505 608.015 505 610.5C505 612.985 502.985 615 500.5 615C498.015 615 496 612.985 496 610.5Z" fill="#E9E9E9"/>
<path d="M496 659.5C496 657.015 498.015 655 500.5 655C502.985 655 505 657.015 505 659.5C505 661.985 502.985 664 500.5 664C498.015 664 496 661.985 496 659.5Z" fill="#E9E9E9"/>
<path d="M496 703.5C496 701.015 498.015 699 500.5 699C502.985 699 505 701.015 505 703.5C505 705.985 502.985 708 500.5 708C498.015 708 496 705.985 496 703.5Z" fill="#E9E9E9"/>
<path d="M496 742.5C496 740.015 498.015 738 500.5 738C502.985 738 505 740.015 505 742.5C505 744.985 502.985 747 500.5 747C498.015 747 496 744.985 496 742.5Z" fill="#E9E9E9"/>
<path d="M496 776.5C496 774.015 498.015 772 500.5 772C502.985 772 505 774.015 505 776.5C505 778.985 502.985 781 500.5 781C498.015 781 496 778.985 496 776.5Z" fill="#E9E9E9"/>
<path d="M496 805.5C496 803.015 498.015 801 500.5 801C502.985 801 505 803.015 505 805.5C505 807.985 502.985 810 500.5 810C498.015 810 496 807.985 496 805.5Z" fill="#E9E9E9"/>
<path d="M496 829.5C496 827.015 498.015 825 500.5 825C502.985 825 505 827.015 505 829.5C505 831.985 502.985 834 500.5 834C498.015 834 496 831.985 496 829.5Z" fill="#E9E9E9"/>
<path d="M496 853.5C496 851.015 498.015 849 500.5 849C502.985 849 505 851.015 505 853.5C505 855.985 502.985 858 500.5 858C498.015 858 496 855.985 496 853.5Z" fill="#E9E9E9"/>
<path d="M496 882.5C496 880.015 498.015 878 500.5 878C502.985 878 505 880.015 505 882.5C505 884.985 502.985 887 500.5 887C498.015 887 496 884.985 496 882.5Z" fill="#E9E9E9"/>
<path d="M496 916.5C496 914.015 498.015 912 500.5 912C502.985 912 505 914.015 505 916.5C505 918.985 502.985 921 500.5 921C498.015 921 496 918.985 496 916.5Z" fill="#E9E9E9"/>
<path d="M496 955.5C496 953.015 498.015 951 500.5 951C502.985 951 505 953.015 505 955.5C505 957.985 502.985 960 500.5 960C498.015 960 496 957.985 496 955.5Z" fill="#E9E9E9"/>
<path d="M496 999.5C496 997.015 498.015 995 500.5 995C502.985 995 505 997.015 505 999.5C505 1001.99 502.985 1004 500.5 1004C498.015 1004 496 1001.99 496 999.5Z" fill="#E9E9E9"/>
<path d="M496 1043.5C496 1041.01 498.015 1039 500.5 1039C502.985 1039 505 1041.01 505 1043.5C505 1045.99 502.985 1048 500.5 1048C498.015 1048 496 1045.99 496 1043.5Z" fill="#E9E9E9"/>
</svg>
